<svg version="1.1" id="Layer_1" xmlns="http://www.w3.org/2000/svg" xmlns:xlink="http://www.w3.org/1999/xlink" x="0px" y="0px"
	 width="100%" viewBox="0 0 496 496" enable-background="new 0 0 496 496" xml:space="preserve">
<path fill="#000000" opacity="1.000000" stroke="none" 
	d="
M1.000000,491.000000 
	C1.000000,389.310699 1.000000,287.621368 1.167132,185.739151 
	C1.242461,190.793594 5.934372,189.078110 8.458588,190.158112 
	C15.543173,193.189316 19.204054,192.204025 22.428720,185.429886 
	C26.873962,176.091660 33.541687,170.597427 43.818333,168.781555 
	C54.755825,166.848907 61.001991,157.255295 69.572556,151.454468 
	C78.257515,145.576248 83.618248,136.195435 89.552689,127.506844 
	C101.287926,110.325317 112.724724,93.031906 122.257996,74.478462 
	C130.384689,58.662441 140.645920,44.440121 155.639511,34.135227 
	C159.298874,31.620190 162.337921,28.174328 165.537521,25.029610 
	C167.338181,23.259844 169.172272,21.011412 168.516937,18.458786 
	C167.343674,13.888690 168.182098,9.564822 169.044800,5.173141 
	C169.356766,3.585012 169.068451,2.210951 168.000000,1.000000 
	C274.355988,1.000000 380.711945,1.000000 487.227234,1.138503 
	C486.003326,2.089874 484.097137,1.427294 482.901276,2.805828 
	C487.626343,8.233181 492.313171,13.616586 497.000000,18.999996 
	C497.000000,175.022644 497.000000,331.045288 496.631470,487.622345 
	C492.587372,488.957489 488.794128,490.784302 485.378784,487.682709 
	C481.841339,484.470245 477.685120,484.230042 473.723846,485.835480 
	C461.432251,490.816925 448.518219,489.519867 435.879456,489.434906 
	C426.244141,489.370148 416.940399,488.442383 409.442902,496.031708 
	C409.880981,496.304138 410.440491,496.652069 411.000000,497.000000 
	C279.977356,497.000000 148.954727,497.000000 17.479588,496.729980 
	C13.626778,489.956909 10.842035,489.008240 1.000000,491.000000 
M347.653534,140.310333 
	C343.246155,141.177307 338.752502,141.800034 334.790192,144.114792 
	C331.737396,145.898254 329.957306,145.015320 328.621796,141.856812 
	C326.934418,137.866196 323.895294,135.117157 319.898193,133.361649 
	C305.649261,127.103546 289.795197,133.029663 283.828247,147.613083 
	C276.077209,166.556900 269.850800,186.075867 263.153809,205.415054 
	C249.492462,244.865326 235.689713,284.266602 221.968597,323.696198 
	C216.942139,338.140442 211.665604,352.508972 207.112289,367.102142 
	C204.462357,375.595123 206.064331,383.723175 213.203934,389.840546 
	C219.927505,395.601410 231.141266,396.462860 239.078461,392.545197 
	C248.666046,387.812958 252.393875,379.050385 255.516327,369.746429 
	C260.597626,354.605652 265.692200,339.469269 270.831024,324.347992 
	C271.446228,322.537811 271.671570,320.397644 274.066101,319.303192 
	C276.615143,320.950073 279.229767,322.691620 281.894928,324.352081 
	C292.071289,330.692291 303.291412,333.966553 315.147156,333.406799 
	C348.291168,331.841919 371.812469,315.305969 384.901459,285.133881 
	C395.159607,261.487366 402.968201,236.840775 411.449799,212.490005 
	C415.124634,201.939621 416.190857,191.089325 413.994568,180.017426 
	C407.744751,148.510696 373.535980,136.792816 347.653534,140.310333 
M226.350769,259.912903 
	C234.377014,236.966965 242.615509,214.092163 250.341522,191.045578 
	C254.307632,179.214737 259.193298,167.679123 262.065704,155.483063 
	C264.167206,146.560135 261.016449,136.696838 254.503220,132.120789 
	C246.630096,126.589348 237.181061,126.690506 228.742294,132.142120 
	C222.704422,136.042740 218.946793,141.583267 216.638260,148.187332 
	C207.525330,174.256973 198.499481,200.357040 189.414078,226.436310 
	C177.207794,261.473846 164.846817,296.458252 152.836960,331.562897 
	C149.368271,341.701843 144.888931,351.442078 144.596725,362.722595 
	C144.260513,375.701385 158.097504,386.658813 171.174408,382.072327 
	C181.017776,378.619965 187.311935,371.514740 190.674774,362.005707 
	C202.606796,328.265747 214.281052,294.434662 226.350769,259.912903 
z"/>
<path fill="#000000" opacity="1.000000" stroke="none" 
	d="
M305.665558,286.671204 
	C294.787170,279.699799 291.209473,270.375610 295.112640,258.615723 
	C301.504852,239.356583 308.123108,220.172272 314.685669,200.969955 
	C318.552795,189.654465 325.478363,181.559143 337.892944,179.470657 
	C357.310028,176.204147 365.591278,187.742523 363.858734,205.174301 
	C362.720947,216.622101 357.544434,226.825668 354.112640,237.556503 
	C350.520050,248.790115 346.757080,260.005737 342.313812,270.922028 
	C336.029083,286.362366 321.227203,292.574249 305.665558,286.671204 
z"/>
</svg>